<?xml version="1.0" encoding="utf-8"?>
<!-- Generator: Adobe Illustrator 16.0.0, SVG Export Plug-In . SVG Version: 6.00 Build 0)  -->
<!DOCTYPE svg PUBLIC "-//W3C//DTD SVG 1.1//EN" "http://www.w3.org/Graphics/SVG/1.1/DTD/svg11.dtd">
<svg version="1.1" id="Layer_1" xmlns="http://www.w3.org/2000/svg" xmlns:xlink="http://www.w3.org/1999/xlink" x="0px" y="0px"
	 width="200px" height="100px" viewBox="0 0 200 100" enable-background="new 0 0 200 100" xml:space="preserve">
<g>
	<g>
		<path fill="#A2BF47" d="M137.831,29.104c0-8.563-6.943-15.506-15.507-15.506c-8.564,0-15.506,6.943-15.506,15.506
			c0,7.848,5.834,14.331,13.4,15.359v12.93c1.438,0.453,2.841,0.953,4.211,1.496V44.462
			C131.996,43.435,137.831,36.953,137.831,29.104z"/>
		<path fill="#397537" d="M88.754,45.46c-3.205-4.882-5.243-12.214-5.243-20.414c0-0.72,0.02-1.433,0.051-2.14
			c-1.147-0.324-2.355-0.502-3.606-0.502c-7.295,0-13.209,5.914-13.209,13.208c0,6.533,4.744,11.955,10.975,13.016v8.764
			c1.375-0.436,2.781-0.828,4.211-1.181v-7.541C84.531,48.28,86.883,47.134,88.754,45.46z"/>
		<path fill="#509341" d="M104.904,29.104c0-5.593,2.814-10.493,7.036-13.22c-2.044-9.195-6.993-15.685-12.78-15.685
			c-7.612,0-13.783,11.227-13.783,25.077c0,12.606,5.115,23.038,11.773,24.809v4.122c0.604-0.015,1.209-0.024,1.818-0.024
			c0.802,0,1.6,0.015,2.393,0.04v-4.19c3.48-1.019,6.523-4.407,8.617-9.227C106.872,37.962,104.904,33.775,104.904,29.104z"/>
		<g>
			<g>
				<defs>
					<path id="SVGID_1_" d="M83.511,25.044c0-0.72,0.02-1.432,0.051-2.139c-1.147-0.325-2.355-0.503-3.606-0.503
						c-7.295,0-13.209,5.914-13.209,13.209c0,7.294,5.914,13.208,13.209,13.208c3.381,0,6.463-1.271,8.799-3.361
						C85.549,40.577,83.511,33.246,83.511,25.044z"/>
				</defs>
				<clipPath id="SVGID_2_">
					<use xlink:href="#SVGID_1_"  overflow="visible"/>
				</clipPath>
				<g opacity="0.1" clip-path="url(#SVGID_2_)">
					<ellipse fill="#FFFF00" cx="79.061" cy="-23.348" rx="79.059" ry="59.151"/>
				</g>
			</g>
		</g>
		<g>
			<g>
				<defs>
					<path id="SVGID_3_" d="M104.904,29.104c0-5.593,2.814-10.493,7.036-13.22c-2.044-9.195-6.993-15.685-12.78-15.685
						c-7.612,0-13.783,11.227-13.783,25.077c0,13.85,6.171,25.077,13.783,25.077c4.388,0,8.292-3.736,10.818-9.548
						C106.872,37.962,104.904,33.775,104.904,29.104z"/>
				</defs>
				<clipPath id="SVGID_4_">
					<use xlink:href="#SVGID_3_"  overflow="visible"/>
				</clipPath>
				<g opacity="0.1" clip-path="url(#SVGID_4_)">
					<ellipse fill="#FFFF00" cx="79.061" cy="-23.348" rx="79.059" ry="59.151"/>
				</g>
			</g>
		</g>
		<g>
			<g>
				<defs>
					<circle id="SVGID_5_" cx="122.324" cy="29.104" r="15.506"/>
				</defs>
				<clipPath id="SVGID_6_">
					<use xlink:href="#SVGID_5_"  overflow="visible"/>
				</clipPath>
				<g opacity="0.1" clip-path="url(#SVGID_6_)">
					<ellipse fill="#FFFF00" cx="79.061" cy="-23.348" rx="79.059" ry="59.151"/>
				</g>
			</g>
		</g>
		<g>
			<path fill="#D1722F" d="M100.119,55.902c-32.159,0-47.475,17.994-47.475,17.994c0.766,0.384,7.657-4.593,7.657-4.593
				c19.527-12.251,40.2-9.954,40.2-9.954c28.475,2.345,41.074,16.646,43.838,20.098c0.214,0.269,0.418,0.521,0.619,0.758
				c0.594-0.466,1.203-0.916,1.813-1.364C142.803,72.971,127.521,55.902,100.119,55.902z"/>
			<path fill="#D1722F" d="M146.772,78.841l-1.815,1.364c0,0,0.642,0.838,1.482,1.562c0.623,0.538,1.727,0.85,1.727,0.36
				C148.166,80.979,146.772,78.841,146.772,78.841z"/>
		</g>
	</g>
	<g>
		<g>
			<path fill="#96AA43" d="M84.26,98.618V97.7c0.099,0.095,0.218,0.178,0.357,0.251c0.138,0.076,0.285,0.14,0.438,0.188
				c0.154,0.051,0.308,0.091,0.462,0.118c0.155,0.028,0.298,0.043,0.43,0.043c0.453,0,0.792-0.089,1.015-0.266
				c0.224-0.18,0.335-0.433,0.335-0.769c0-0.18-0.037-0.336-0.111-0.468c-0.075-0.132-0.177-0.254-0.309-0.363
				c-0.132-0.109-0.288-0.215-0.467-0.317c-0.181-0.099-0.374-0.204-0.582-0.316c-0.218-0.117-0.423-0.236-0.613-0.358
				c-0.189-0.12-0.354-0.253-0.496-0.397c-0.141-0.144-0.25-0.31-0.33-0.493c-0.08-0.185-0.122-0.398-0.122-0.646
				c0-0.303,0.063-0.565,0.189-0.791c0.125-0.224,0.291-0.407,0.496-0.554c0.205-0.146,0.438-0.254,0.7-0.323
				c0.262-0.073,0.528-0.107,0.801-0.107c0.619,0,1.07,0.079,1.354,0.234v0.875c-0.371-0.269-0.847-0.406-1.429-0.406
				c-0.161,0-0.321,0.019-0.481,0.053c-0.161,0.035-0.304,0.093-0.429,0.176c-0.126,0.078-0.229,0.183-0.308,0.309
				c-0.08,0.128-0.119,0.281-0.119,0.464c0,0.169,0.03,0.316,0.089,0.438c0.059,0.124,0.147,0.238,0.265,0.341
				c0.117,0.103,0.26,0.201,0.427,0.296s0.362,0.202,0.581,0.316c0.224,0.116,0.438,0.239,0.64,0.369
				c0.202,0.129,0.378,0.272,0.531,0.432c0.151,0.156,0.272,0.33,0.362,0.524c0.09,0.19,0.134,0.409,0.134,0.655
				c0,0.329-0.061,0.605-0.182,0.834c-0.121,0.226-0.285,0.413-0.491,0.555s-0.443,0.244-0.712,0.307
				c-0.269,0.063-0.553,0.096-0.851,0.096c-0.099,0-0.222-0.008-0.367-0.025c-0.147-0.017-0.296-0.043-0.448-0.075
				c-0.152-0.032-0.295-0.072-0.432-0.121C84.451,98.729,84.343,98.678,84.26,98.618z"/>
			<path fill="#96AA43" d="M92.917,98.893h-0.72v-0.761h-0.017C91.848,98.71,91.333,99,90.637,99c-0.564,0-1.015-0.203-1.352-0.603
				c-0.338-0.402-0.507-0.951-0.507-1.644c0-0.743,0.188-1.336,0.562-1.783c0.373-0.448,0.873-0.67,1.495-0.67
				c0.617,0,1.065,0.242,1.346,0.726h0.017v-2.779h0.72V98.893z M92.198,96.863v-0.661c0-0.363-0.12-0.67-0.36-0.921
				c-0.239-0.253-0.543-0.378-0.912-0.378c-0.439,0-0.784,0.16-1.035,0.482c-0.251,0.32-0.377,0.766-0.377,1.332
				c0,0.518,0.121,0.925,0.362,1.226s0.565,0.449,0.971,0.449c0.4,0,0.725-0.144,0.976-0.433
				C92.073,97.671,92.198,97.305,92.198,96.863z"/>
			<path fill="#96AA43" d="M98.28,98.893h-0.719v-2.561c0-0.952-0.348-1.429-1.044-1.429c-0.36,0-0.657,0.135-0.894,0.405
				c-0.235,0.27-0.353,0.611-0.353,1.023v2.561h-0.719v-4.487h0.719v0.745h0.018c0.338-0.568,0.829-0.852,1.473-0.852
				c0.491,0,0.866,0.157,1.126,0.477c0.26,0.315,0.391,0.774,0.391,1.374L98.28,98.893L98.28,98.893z"/>
			<path fill="#96AA43" d="M102.711,98.893v-6.762h1.789c0.543,0,0.974,0.144,1.293,0.431c0.318,0.286,0.479,0.659,0.479,1.117
				c0,0.384-0.098,0.717-0.291,0.998c-0.192,0.284-0.457,0.485-0.797,0.605v0.019c0.423,0.054,0.762,0.227,1.017,0.517
				c0.254,0.291,0.382,0.668,0.382,1.134c0,0.578-0.193,1.046-0.578,1.404c-0.386,0.359-0.873,0.537-1.459,0.537H102.711z
				 M103.447,92.848v2.184h0.754c0.404,0,0.721-0.105,0.951-0.314c0.23-0.21,0.347-0.503,0.347-0.885
				c0-0.656-0.401-0.984-1.206-0.984H103.447L103.447,92.848z M103.447,95.743v2.435h1c0.433,0,0.768-0.109,1.007-0.33
				s0.356-0.521,0.356-0.906c0-0.797-0.506-1.198-1.516-1.198H103.447z"/>
			<path fill="#96AA43" d="M111.345,98.893h-0.72v-2.586c0-0.936-0.348-1.4-1.043-1.4c-0.352,0-0.646,0.134-0.886,0.404
				c-0.24,0.27-0.36,0.617-0.36,1.04v2.545h-0.719v-6.648h0.719v2.903h0.018c0.344-0.566,0.836-0.85,1.473-0.85
				c1.012,0,1.518,0.609,1.518,1.827L111.345,98.893L111.345,98.893z"/>
			<path fill="#96AA43" d="M116.551,98.893h-0.719v-0.761h-0.018C115.481,98.71,114.967,99,114.271,99
				c-0.564,0-1.015-0.203-1.353-0.603c-0.337-0.402-0.506-0.951-0.506-1.644c0-0.743,0.188-1.336,0.561-1.783
				c0.374-0.448,0.874-0.67,1.496-0.67c0.617,0,1.064,0.242,1.346,0.726h0.018v-2.779h0.719V98.893z M115.832,96.863v-0.661
				c0-0.363-0.12-0.67-0.36-0.921c-0.239-0.253-0.544-0.378-0.912-0.378c-0.438,0-0.784,0.16-1.035,0.482
				c-0.251,0.32-0.377,0.766-0.377,1.332c0,0.518,0.121,0.925,0.362,1.226c0.24,0.301,0.564,0.449,0.971,0.449
				c0.4,0,0.726-0.144,0.976-0.433S115.832,97.305,115.832,96.863z"/>
		</g>
		<g>
			<path fill="#96AA43" d="M80.373,81.906h-2.455v2.34h2.271v0.712h-2.271v2.996h-0.736v-6.763h3.191V81.906z"/>
			<path fill="#96AA43" d="M85.279,87.951h-0.719v-0.71h-0.018c-0.298,0.546-0.76,0.817-1.385,0.817c-1.07,0-1.605-0.637-1.605-1.91
				v-2.685h0.714v2.569c0,0.947,0.362,1.421,1.087,1.421c0.35,0,0.639-0.13,0.866-0.389c0.227-0.258,0.34-0.597,0.34-1.016v-2.586
				h0.719V87.951z"/>
			<path fill="#96AA43" d="M88.832,87.91c-0.169,0.092-0.393,0.141-0.67,0.141c-0.787,0-1.179-0.438-1.179-1.316v-2.656h-0.771
				v-0.614h0.771v-1.098l0.719-0.232v1.33h1.131v0.612h-1.131v2.53c0,0.3,0.051,0.515,0.154,0.645
				c0.103,0.129,0.272,0.193,0.509,0.193c0.182,0,0.337-0.052,0.468-0.148L88.832,87.91L88.832,87.91z"/>
			<path fill="#96AA43" d="M93.602,87.951h-0.72v-0.71h-0.017c-0.298,0.546-0.76,0.817-1.385,0.817c-1.07,0-1.605-0.637-1.605-1.91
				v-2.685h0.715v2.569c0,0.947,0.362,1.421,1.087,1.421c0.351,0,0.64-0.13,0.867-0.389c0.227-0.258,0.339-0.597,0.339-1.016v-2.586
				h0.72V87.951z"/>
			<path fill="#96AA43" d="M97.574,84.19c-0.126-0.096-0.308-0.145-0.543-0.145c-0.307,0-0.563,0.145-0.769,0.436
				c-0.207,0.289-0.31,0.684-0.31,1.182v2.288h-0.72v-4.487h0.72v0.924h0.017c0.103-0.314,0.258-0.561,0.469-0.738
				c0.21-0.177,0.445-0.264,0.705-0.264c0.188,0,0.33,0.02,0.429,0.059v0.746H97.574z"/>
			<path fill="#96AA43" d="M102.143,85.888h-3.169c0.011,0.5,0.146,0.886,0.403,1.155c0.258,0.273,0.611,0.408,1.062,0.408
				c0.505,0,0.971-0.166,1.394-0.498v0.675c-0.395,0.287-0.916,0.429-1.565,0.429c-0.634,0-1.132-0.203-1.495-0.612
				c-0.362-0.408-0.544-0.98-0.544-1.72c0-0.698,0.198-1.267,0.593-1.707c0.396-0.439,0.888-0.661,1.476-0.661
				c0.588,0,1.042,0.19,1.364,0.57c0.321,0.383,0.481,0.907,0.481,1.583V85.888z M101.406,85.277
				c-0.004-0.414-0.104-0.738-0.301-0.968c-0.198-0.231-0.471-0.349-0.822-0.349c-0.338,0-0.627,0.122-0.864,0.366
				c-0.236,0.241-0.383,0.559-0.438,0.95H101.406z"/>
			<path fill="#96AA43" d="M106.881,85.396v2.556h-0.736v-6.762h1.727c0.673,0,1.193,0.177,1.564,0.528
				c0.369,0.354,0.555,0.85,0.555,1.49c0,0.642-0.205,1.166-0.615,1.575c-0.412,0.407-0.965,0.612-1.666,0.612H106.881z
				 M106.881,81.906v2.772h0.771c0.509,0,0.896-0.123,1.164-0.374c0.268-0.25,0.402-0.604,0.402-1.058
				c0-0.894-0.492-1.341-1.474-1.341H106.881z"/>
			<path fill="#96AA43" d="M111.653,87.951h-0.72v-6.646h0.72V87.951z"/>
			<path fill="#96AA43" d="M116.342,87.951h-0.72v-0.7h-0.018c-0.313,0.539-0.772,0.806-1.382,0.806
				c-0.447,0-0.797-0.118-1.049-0.354c-0.254-0.237-0.38-0.553-0.38-0.943c0-0.841,0.493-1.326,1.481-1.465l1.346-0.188
				c0-0.764-0.309-1.146-0.926-1.146c-0.541,0-1.028,0.186-1.463,0.555v-0.737c0.439-0.279,0.949-0.422,1.525-0.422
				c1.056,0,1.582,0.559,1.582,1.676v2.919H116.342z M115.622,85.683l-1.082,0.149c-0.333,0.046-0.585,0.127-0.755,0.246
				s-0.254,0.328-0.254,0.631c0,0.219,0.078,0.398,0.236,0.535c0.156,0.14,0.363,0.21,0.624,0.21c0.356,0,0.651-0.125,0.884-0.375
				c0.232-0.252,0.348-0.565,0.348-0.95L115.622,85.683L115.622,85.683z"/>
			<path fill="#96AA43" d="M121.119,87.951H120.4v-2.561c0-0.951-0.348-1.43-1.045-1.43c-0.359,0-0.656,0.136-0.892,0.406
				c-0.235,0.27-0.354,0.612-0.354,1.023v2.561h-0.72v-4.487h0.72v0.744h0.018c0.339-0.566,0.83-0.852,1.474-0.852
				c0.491,0,0.866,0.159,1.127,0.478c0.26,0.317,0.39,0.775,0.39,1.373L121.119,87.951L121.119,87.951z"/>
			<path fill="#96AA43" d="M124.575,87.91c-0.17,0.092-0.394,0.141-0.671,0.141c-0.786,0-1.179-0.438-1.179-1.316v-2.656h-0.771
				v-0.614h0.771v-1.098l0.72-0.232v1.33h1.131v0.612h-1.131v2.53c0,0.3,0.051,0.515,0.153,0.645
				c0.103,0.129,0.272,0.193,0.509,0.193c0.182,0,0.337-0.052,0.469-0.148L124.575,87.91L124.575,87.91z"/>
			<path fill="#96AA43" d="M128.768,87.951h-0.72v-0.7h-0.017c-0.313,0.539-0.772,0.806-1.381,0.806
				c-0.448,0-0.799-0.118-1.051-0.354c-0.253-0.237-0.379-0.553-0.379-0.943c0-0.841,0.493-1.326,1.481-1.465l1.345-0.188
				c0-0.764-0.308-1.146-0.925-1.146c-0.542,0-1.028,0.186-1.464,0.555v-0.737c0.441-0.279,0.948-0.422,1.525-0.422
				c1.056,0,1.583,0.559,1.583,1.676L128.768,87.951L128.768,87.951z M128.048,85.683l-1.083,0.149
				c-0.331,0.046-0.583,0.127-0.754,0.246c-0.169,0.119-0.253,0.328-0.253,0.631c0,0.219,0.078,0.398,0.235,0.535
				c0.155,0.14,0.363,0.21,0.624,0.21c0.356,0,0.651-0.125,0.884-0.375c0.232-0.252,0.348-0.565,0.348-0.95L128.048,85.683
				L128.048,85.683z"/>
			<path fill="#96AA43" d="M131.74,87.91c-0.169,0.092-0.394,0.141-0.671,0.141c-0.786,0-1.179-0.438-1.179-1.316v-2.656h-0.771
				v-0.614h0.771v-1.098l0.719-0.232v1.33h1.132v0.612h-1.132v2.53c0,0.3,0.051,0.515,0.154,0.645
				c0.103,0.129,0.273,0.193,0.508,0.193c0.183,0,0.339-0.052,0.47-0.148L131.74,87.91L131.74,87.91z"/>
			<path fill="#96AA43" d="M133.248,82.323c-0.131,0-0.238-0.044-0.33-0.13c-0.091-0.089-0.136-0.201-0.136-0.334
				c0-0.135,0.045-0.246,0.136-0.335c0.092-0.09,0.199-0.136,0.33-0.136s0.243,0.046,0.334,0.136c0.093,0.089,0.14,0.2,0.14,0.335
				c0,0.129-0.045,0.238-0.14,0.329C133.492,82.279,133.379,82.323,133.248,82.323z M133.599,87.951h-0.719v-4.487h0.719V87.951z"/>
			<path fill="#96AA43" d="M137.111,88.059c-0.663,0-1.193-0.21-1.589-0.63c-0.396-0.42-0.595-0.976-0.595-1.668
				c0-0.753,0.207-1.343,0.618-1.766c0.413-0.424,0.969-0.637,1.671-0.637c0.668,0,1.191,0.205,1.568,0.617
				c0.376,0.412,0.562,0.984,0.562,1.716c0,0.715-0.202,1.289-0.607,1.72C138.334,87.843,137.792,88.059,137.111,88.059z
				 M137.163,83.961c-0.461,0-0.827,0.159-1.096,0.474c-0.271,0.314-0.404,0.747-0.404,1.3c0,0.531,0.136,0.951,0.407,1.258
				c0.272,0.309,0.635,0.462,1.092,0.462c0.465,0,0.822-0.151,1.072-0.452c0.25-0.302,0.374-0.731,0.374-1.284
				c0-0.562-0.124-0.994-0.374-1.3C137.985,84.116,137.628,83.961,137.163,83.961z"/>
			<path fill="#96AA43" d="M144.402,87.951h-0.72v-2.561c0-0.951-0.349-1.43-1.045-1.43c-0.358,0-0.656,0.136-0.892,0.406
				c-0.234,0.27-0.354,0.612-0.354,1.023v2.561h-0.72v-4.487h0.72v0.744h0.019c0.337-0.566,0.829-0.852,1.474-0.852
				c0.49,0,0.865,0.159,1.126,0.478c0.259,0.317,0.39,0.775,0.39,1.373v2.744H144.402z"/>
			<path fill="#96AA43" d="M72.636,87.987h-3.526v-6.798h0.796v6.078h2.73V87.987z"/>
			<path fill="#96AA43" d="M66.352,81.189h-1.579v0.796h1.579v4.407c0,1.448-0.498,1.955-1.113,2.325
				c-0.503,0.306-0.238,0.701,0.028,0.701c0.571,0,1.029-0.268,1.37-0.8c0.341-0.532,0.512-1.277,0.512-2.236v-4.397v-0.794h-0.797
				V81.189z"/>
			<path fill="#96AA43" d="M63.854,81.189h-0.265h-0.996h-0.014v0.025c-0.206,0.328-2.309,3.129-2.441,3.464h-0.001
				c-0.011-0.025-0.034-0.069-0.068-0.123c-0.001-0.005-0.002-0.01-0.004-0.012c-0.001,0-0.001,0-0.002,0
				c-0.409-0.67-2.273-3.152-2.378-3.348v-0.007h-0.003h-0.996h-0.276v0.796h0.276v0.086v5.442v0.576h0.795v-5.942l2.476,3.687
				h0.092h0.199h0.071l2.476-3.687v5.942h0.795v-0.576v-5.442v-0.086h0.265V81.189z M57.413,82.071
				c-0.001-0.009-0.001-0.018-0.002-0.029l0.02,0.029H57.413z M62.843,82.071l0.02-0.029c-0.001,0.012-0.001,0.021-0.002,0.029
				H62.843z"/>
		</g>
	</g>
</g>
</svg>
