<?xml version="1.0" encoding="utf-8"?>
<!-- Generator: Adobe Illustrator 16.0.0, SVG Export Plug-In . SVG Version: 6.00 Build 0)  -->
<!DOCTYPE svg PUBLIC "-//W3C//DTD SVG 1.1//EN" "http://www.w3.org/Graphics/SVG/1.1/DTD/svg11.dtd">
<svg version="1.1" id="Layer_1" xmlns="http://www.w3.org/2000/svg" xmlns:xlink="http://www.w3.org/1999/xlink" x="0px" y="0px"
	 width="199.638px" height="78.48px" viewBox="0 0 199.638 78.48" enable-background="new 0 0 199.638 78.48" xml:space="preserve">
<g>
	<g>
		<path fill="#414042" d="M93.004,63.333v-0.541h3.029v0.541H94.8v4.988h-0.562v-4.988H93.004z"/>
		<path fill="#414042" d="M97.821,62.652h0.526v2.312c0.213-0.28,0.448-0.492,0.703-0.631c0.255-0.14,0.532-0.209,0.831-0.209
			c0.306,0,0.578,0.078,0.812,0.233c0.237,0.154,0.412,0.364,0.525,0.625c0.113,0.262,0.169,0.672,0.169,1.231v2.104h-0.526v-1.951
			c0-0.472-0.02-0.785-0.056-0.943c-0.065-0.271-0.184-0.474-0.355-0.61c-0.171-0.137-0.397-0.204-0.674-0.204
			c-0.319,0-0.603,0.105-0.856,0.315c-0.251,0.211-0.417,0.472-0.498,0.781c-0.051,0.2-0.075,0.572-0.075,1.113v1.499h-0.526V62.652
			z"/>
		<path fill="#414042" d="M107.037,66.963l0.442,0.233c-0.146,0.286-0.313,0.516-0.503,0.692c-0.191,0.175-0.404,0.31-0.645,0.4
			c-0.238,0.091-0.508,0.137-0.809,0.137c-0.667,0-1.188-0.219-1.565-0.656c-0.375-0.437-0.562-0.931-0.562-1.482
			c0-0.52,0.158-0.981,0.478-1.388c0.402-0.516,0.943-0.774,1.621-0.774c0.697,0,1.253,0.264,1.67,0.794
			c0.296,0.374,0.446,0.84,0.452,1.399h-3.68c0.011,0.474,0.16,0.865,0.455,1.167c0.294,0.305,0.656,0.456,1.088,0.456
			c0.208,0,0.412-0.037,0.608-0.109c0.196-0.073,0.364-0.17,0.503-0.288C106.727,67.422,106.876,67.229,107.037,66.963z
			 M107.037,65.862c-0.071-0.281-0.171-0.505-0.307-0.673c-0.135-0.167-0.312-0.302-0.533-0.406
			c-0.221-0.102-0.454-0.154-0.696-0.154c-0.402,0-0.746,0.129-1.034,0.388c-0.212,0.188-0.37,0.47-0.478,0.846H107.037z"/>
		<path fill="#414042" d="M114.758,64.125c0.387,0,0.749,0.097,1.088,0.289c0.341,0.193,0.604,0.454,0.794,0.785
			c0.191,0.332,0.286,0.689,0.286,1.071c0,0.387-0.097,0.747-0.288,1.082s-0.453,0.598-0.783,0.787
			c-0.331,0.189-0.696,0.284-1.095,0.284c-0.587,0-1.088-0.209-1.501-0.625c-0.414-0.417-0.621-0.923-0.621-1.519
			c0-0.64,0.233-1.172,0.703-1.598C113.751,64.309,114.225,64.125,114.758,64.125z M114.775,65.09c-0.319,0-0.585,0.111-0.796,0.332
			c-0.212,0.223-0.319,0.505-0.319,0.851c0,0.355,0.104,0.645,0.313,0.865c0.21,0.221,0.476,0.332,0.796,0.332
			c0.322,0,0.589-0.111,0.804-0.334c0.213-0.222,0.32-0.51,0.32-0.861s-0.105-0.636-0.314-0.856
			C115.369,65.2,115.101,65.09,114.775,65.09z"/>
		<path fill="#414042" d="M118.602,64.229h0.88v0.516c0.095-0.202,0.223-0.357,0.381-0.463s0.331-0.158,0.519-0.158
			c0.134,0,0.271,0.034,0.418,0.105l-0.319,0.884c-0.12-0.061-0.221-0.091-0.297-0.091c-0.158,0-0.291,0.098-0.4,0.293
			s-0.164,0.579-0.164,1.149l0.004,0.198v1.654h-1.019v-4.088H118.602z"/>
		<path fill="#414042" d="M122.783,62.546c0.181,0,0.333,0.065,0.463,0.194c0.129,0.13,0.193,0.288,0.193,0.474
			c0,0.183-0.064,0.339-0.191,0.469c-0.128,0.129-0.281,0.192-0.458,0.192c-0.182,0-0.338-0.065-0.466-0.196
			c-0.13-0.131-0.193-0.292-0.193-0.479c0-0.18,0.063-0.333,0.191-0.463C122.45,62.61,122.602,62.546,122.783,62.546z
			 M122.269,64.229h1.025v4.09h-1.025V64.229z"/>
		<path fill="#414042" d="M128.328,64.229h1.022v3.503c0,0.692-0.141,1.201-0.418,1.526c-0.373,0.441-0.936,0.662-1.687,0.662
			c-0.4,0-0.737-0.052-1.011-0.151c-0.273-0.101-0.503-0.248-0.692-0.443c-0.188-0.192-0.326-0.43-0.417-0.708h1.131
			c0.101,0.114,0.229,0.202,0.389,0.262c0.158,0.059,0.344,0.09,0.559,0.09c0.275,0,0.497-0.042,0.665-0.128
			c0.168-0.085,0.286-0.194,0.355-0.331c0.069-0.135,0.104-0.368,0.104-0.7c-0.181,0.181-0.37,0.311-0.568,0.389
			c-0.198,0.08-0.423,0.118-0.672,0.118c-0.549,0-1.013-0.198-1.39-0.594c-0.379-0.396-0.568-0.896-0.568-1.503
			c0-0.648,0.2-1.17,0.601-1.562c0.362-0.355,0.796-0.534,1.301-0.534c0.235,0,0.457,0.044,0.667,0.129
			c0.209,0.088,0.419,0.229,0.63,0.427V64.229L128.328,64.229z M127.262,65.083c-0.322,0-0.59,0.109-0.8,0.324
			c-0.211,0.217-0.315,0.49-0.315,0.818c0,0.34,0.107,0.619,0.322,0.838c0.216,0.219,0.487,0.327,0.812,0.327
			c0.319,0,0.581-0.107,0.787-0.32s0.31-0.492,0.31-0.838c0-0.341-0.104-0.617-0.312-0.831
			C127.86,65.189,127.592,65.083,127.262,65.083z"/>
		<path fill="#414042" d="M131.864,62.546c0.18,0,0.333,0.065,0.463,0.194c0.129,0.13,0.192,0.288,0.192,0.474
			c0,0.183-0.063,0.339-0.191,0.469c-0.127,0.129-0.28,0.192-0.457,0.192c-0.182,0-0.339-0.065-0.466-0.196
			c-0.13-0.131-0.193-0.292-0.193-0.479c0-0.18,0.063-0.333,0.191-0.463C131.53,62.61,131.685,62.546,131.864,62.546z
			 M131.352,64.229h1.025v4.09h-1.025V64.229z"/>
		<path fill="#414042" d="M134.386,64.229h1.026v0.419c0.232-0.196,0.442-0.331,0.632-0.409c0.189-0.077,0.383-0.115,0.581-0.115
			c0.404,0,0.749,0.142,1.031,0.425c0.238,0.24,0.356,0.596,0.356,1.067v2.701h-1.015v-1.791c0-0.488-0.021-0.812-0.065-0.973
			s-0.12-0.282-0.229-0.366c-0.109-0.083-0.242-0.125-0.402-0.125c-0.208,0-0.385,0.069-0.534,0.209
			c-0.149,0.139-0.251,0.332-0.31,0.576c-0.031,0.127-0.045,0.404-0.045,0.828v1.642h-1.026V64.229z"/>
		<path fill="#414042" d="M145.318,64.125c0.631,0,1.151,0.228,1.567,0.685c0.377,0.416,0.564,0.909,0.564,1.478
			c0,0.572-0.199,1.071-0.596,1.497c-0.399,0.429-0.909,0.642-1.534,0.642c-0.628,0-1.14-0.213-1.539-0.642
			c-0.397-0.426-0.596-0.925-0.596-1.497c0-0.566,0.188-1.057,0.564-1.474C144.164,64.355,144.686,64.125,145.318,64.125z
			 M145.316,64.641c-0.437,0-0.812,0.16-1.127,0.484c-0.313,0.322-0.472,0.714-0.472,1.173c0,0.295,0.07,0.572,0.215,0.827
			c0.144,0.255,0.337,0.454,0.581,0.592c0.244,0.139,0.512,0.21,0.803,0.21c0.292,0,0.56-0.071,0.804-0.21
			c0.244-0.14,0.438-0.337,0.581-0.592c0.143-0.255,0.215-0.532,0.215-0.827c0-0.459-0.158-0.849-0.474-1.173
			C146.127,64.801,145.751,64.641,145.316,64.641z"/>
		<path fill="#414042" d="M151.186,62.652v0.516c-0.193-0.082-0.359-0.124-0.496-0.124c-0.102,0-0.188,0.02-0.255,0.062
			s-0.111,0.09-0.127,0.143c-0.019,0.055-0.027,0.198-0.027,0.432v0.552h0.854v0.455h-0.854l-0.002,3.635h-0.526v-3.635h-0.538
			v-0.455h0.538v-0.64c0-0.293,0.027-0.503,0.08-0.626c0.053-0.126,0.144-0.227,0.273-0.303c0.129-0.076,0.283-0.115,0.468-0.115
			C150.743,62.546,150.947,62.581,151.186,62.652z"/>
		<path fill="#414042" d="M155.67,64.229h0.364c0.002-0.535,0.011-0.853,0.025-0.951c0.027-0.226,0.122-0.404,0.284-0.535
			c0.161-0.131,0.391-0.196,0.686-0.196c0.213,0,0.453,0.049,0.721,0.147v0.781c-0.147-0.042-0.27-0.063-0.364-0.063
			c-0.12,0-0.207,0.025-0.262,0.074c-0.04,0.038-0.061,0.115-0.061,0.233l-0.004,0.512h0.65V65.1h-0.65v3.221h-1.025V65.1h-0.364
			V64.229z"/>
		<path fill="#414042" d="M159.15,64.229h0.88v0.516c0.095-0.202,0.223-0.357,0.381-0.463s0.331-0.158,0.519-0.158
			c0.134,0,0.271,0.034,0.418,0.105l-0.319,0.884c-0.12-0.061-0.221-0.091-0.297-0.091c-0.158,0-0.291,0.098-0.4,0.293
			s-0.164,0.579-0.164,1.149l0.004,0.198v1.654h-1.019v-4.088H159.15z"/>
		<path fill="#414042" d="M167.027,66.572h-3.297c0.047,0.291,0.175,0.522,0.382,0.694c0.208,0.171,0.471,0.257,0.791,0.257
			c0.383,0,0.714-0.133,0.989-0.403l0.865,0.406c-0.215,0.307-0.474,0.532-0.774,0.678c-0.301,0.146-0.657,0.221-1.071,0.221
			c-0.641,0-1.164-0.202-1.566-0.606s-0.604-0.911-0.604-1.52c0-0.625,0.2-1.142,0.604-1.554c0.402-0.412,0.905-0.617,1.512-0.617
			c0.646,0,1.168,0.205,1.57,0.617c0.402,0.414,0.604,0.956,0.604,1.634L167.027,66.572z M166.001,65.763
			c-0.067-0.228-0.201-0.414-0.401-0.556c-0.2-0.143-0.432-0.213-0.693-0.213c-0.286,0-0.538,0.08-0.755,0.24
			c-0.135,0.1-0.262,0.276-0.377,0.53h2.227V65.763z"/>
		<path fill="#414042" d="M171.44,64.801l-0.638,0.636c-0.259-0.255-0.492-0.383-0.703-0.383c-0.113,0-0.204,0.023-0.27,0.073
			c-0.065,0.049-0.099,0.111-0.099,0.182c0,0.055,0.019,0.106,0.062,0.151c0.04,0.048,0.143,0.109,0.307,0.189l0.375,0.188
			c0.394,0.195,0.667,0.396,0.812,0.598c0.149,0.202,0.223,0.441,0.223,0.714c0,0.363-0.132,0.667-0.401,0.909
			c-0.266,0.242-0.623,0.364-1.071,0.364c-0.598,0-1.074-0.233-1.428-0.699l0.63-0.687c0.12,0.14,0.263,0.253,0.423,0.341
			c0.164,0.085,0.306,0.129,0.43,0.129c0.135,0,0.244-0.033,0.328-0.099s0.124-0.14,0.124-0.226c0-0.158-0.149-0.312-0.444-0.463
			l-0.347-0.173c-0.663-0.333-0.994-0.751-0.994-1.252c0-0.322,0.124-0.599,0.375-0.828c0.248-0.229,0.568-0.345,0.955-0.345
			c0.266,0,0.517,0.059,0.75,0.175C171.076,64.417,171.276,64.583,171.44,64.801z"/>
		<path fill="#414042" d="M173.403,62.652h1.017v1.992c0.201-0.173,0.404-0.302,0.605-0.39c0.204-0.085,0.408-0.129,0.615-0.129
			c0.408,0,0.747,0.14,1.027,0.421c0.237,0.242,0.357,0.601,0.357,1.071v2.701h-1.013v-1.793c0-0.474-0.022-0.794-0.065-0.962
			c-0.048-0.167-0.124-0.293-0.233-0.375s-0.24-0.124-0.401-0.124c-0.207,0-0.386,0.069-0.535,0.208s-0.251,0.326-0.31,0.562
			c-0.033,0.122-0.048,0.403-0.048,0.842v1.642h-1.017V62.652z"/>
		<path fill="#414042" d="M179.098,64.229h1.027v0.419c0.229-0.196,0.44-0.331,0.63-0.409c0.189-0.077,0.383-0.115,0.579-0.115
			c0.404,0,0.751,0.142,1.035,0.425c0.236,0.24,0.356,0.596,0.356,1.067v2.701h-1.016v-1.791c0-0.488-0.022-0.812-0.066-0.973
			c-0.043-0.16-0.12-0.282-0.229-0.366c-0.109-0.083-0.24-0.125-0.4-0.125c-0.208,0-0.386,0.069-0.535,0.209
			c-0.149,0.139-0.252,0.332-0.311,0.576c-0.028,0.127-0.043,0.404-0.043,0.828v1.642h-1.027V64.229z"/>
		<path fill="#414042" d="M188.89,66.572h-3.297c0.048,0.291,0.176,0.522,0.383,0.694c0.208,0.171,0.47,0.257,0.791,0.257
			c0.382,0,0.714-0.133,0.987-0.403l0.866,0.406c-0.215,0.307-0.474,0.532-0.775,0.678c-0.299,0.146-0.655,0.221-1.071,0.221
			c-0.641,0-1.162-0.202-1.566-0.606c-0.4-0.404-0.604-0.911-0.604-1.52c0-0.625,0.2-1.142,0.604-1.554s0.907-0.617,1.512-0.617
			c0.646,0,1.17,0.205,1.569,0.617c0.404,0.414,0.605,0.956,0.605,1.634L188.89,66.572z M187.864,65.763
			c-0.069-0.228-0.2-0.414-0.401-0.556c-0.2-0.143-0.434-0.213-0.695-0.213c-0.284,0-0.536,0.08-0.754,0.24
			c-0.136,0.1-0.263,0.276-0.376,0.53h2.227V65.763z"/>
		<path fill="#414042" d="M193.302,64.801l-0.638,0.636c-0.259-0.255-0.492-0.383-0.703-0.383c-0.113,0-0.204,0.023-0.27,0.073
			c-0.065,0.049-0.099,0.111-0.099,0.182c0,0.055,0.019,0.106,0.062,0.151c0.041,0.048,0.143,0.109,0.307,0.189l0.375,0.188
			c0.394,0.195,0.667,0.396,0.812,0.598c0.149,0.202,0.223,0.441,0.223,0.714c0,0.363-0.132,0.667-0.401,0.909
			c-0.266,0.242-0.623,0.364-1.071,0.364c-0.597,0-1.074-0.233-1.428-0.699l0.63-0.687c0.121,0.14,0.263,0.253,0.423,0.341
			c0.164,0.085,0.307,0.129,0.43,0.129c0.135,0,0.244-0.033,0.328-0.099s0.124-0.14,0.124-0.226c0-0.158-0.149-0.312-0.444-0.463
			l-0.347-0.173c-0.663-0.333-0.994-0.751-0.994-1.252c0-0.322,0.124-0.599,0.375-0.828c0.248-0.229,0.568-0.345,0.955-0.345
			c0.266,0,0.517,0.059,0.75,0.175C192.938,64.417,193.138,64.583,193.302,64.801z"/>
		<path fill="#414042" d="M197.765,64.801l-0.634,0.636c-0.259-0.255-0.496-0.383-0.703-0.383c-0.117,0-0.208,0.023-0.273,0.073
			c-0.065,0.049-0.099,0.111-0.099,0.182c0,0.055,0.022,0.106,0.062,0.151c0.043,0.048,0.146,0.109,0.306,0.189l0.375,0.188
			c0.397,0.195,0.671,0.396,0.816,0.598c0.149,0.202,0.222,0.441,0.222,0.714c0,0.363-0.135,0.667-0.4,0.909
			c-0.27,0.242-0.627,0.364-1.074,0.364c-0.595,0-1.071-0.233-1.429-0.699l0.634-0.687c0.12,0.14,0.263,0.253,0.423,0.341
			c0.16,0.085,0.306,0.129,0.43,0.129c0.135,0,0.244-0.033,0.328-0.099c0.08-0.065,0.124-0.14,0.124-0.226
			c0-0.158-0.149-0.312-0.448-0.463l-0.346-0.173c-0.663-0.333-0.995-0.751-0.995-1.252c0-0.322,0.124-0.599,0.375-0.828
			c0.248-0.229,0.568-0.345,0.955-0.345c0.266,0,0.518,0.059,0.75,0.175C197.405,64.417,197.601,64.583,197.765,64.801z"/>
	</g>
	<g>
		<path fill="#8DC63F" d="M108.005,5.96c0.151-0.503,0.397-0.92,0.736-1.248c0.341-0.328,0.712-0.541,1.116-0.643
			c0.403-0.1,0.812-0.075,1.229,0.075c0.415,0.151,0.773,0.454,1.076,0.907c0.101,0.126,0.195,0.277,0.284,0.454
			c0.087,0.177,0.131,0.341,0.131,0.492c0.051,3.603,0.031,7.201-0.057,10.793c-0.089,3.59-0.232,7.188-0.434,10.793
			c0,0.579-0.182,1.033-0.548,1.36c-0.366,0.328-0.781,0.536-1.248,0.623c-0.466,0.087-0.938,0.039-1.417-0.151
			s-0.832-0.51-1.059-0.964c-0.025-0.025-0.038-0.051-0.038-0.075v0.075c-1.638-2.696-3.364-5.286-5.179-7.769
			c-1.814-2.481-3.706-4.946-5.671-7.391v8.543c0,1.161,0,2.129,0,2.911c0,0.781-0.013,1.417-0.038,1.909
			c-0.026,0.492-0.057,0.876-0.095,1.153c-0.039,0.277-0.095,0.518-0.169,0.718c-0.228,0.605-0.574,1.007-1.041,1.209
			s-0.938,0.251-1.417,0.151s-0.896-0.354-1.248-0.756c-0.353-0.403-0.528-0.907-0.528-1.512c0-0.354,0-0.907,0-1.663
			s0-1.612,0-2.57c0-0.957,0-1.984,0-3.081s0-2.173,0-3.231s-0.007-2.047-0.02-2.967c-0.013-0.92-0.02-1.694-0.02-2.325
			c0-0.856-0.013-1.707-0.038-2.552c-0.025-0.844-0.025-1.694,0-2.552c0-0.428,0.107-0.794,0.322-1.097
			c0.213-0.302,0.485-0.536,0.812-0.7c0.328-0.164,0.682-0.258,1.059-0.284c0.379-0.025,0.743,0.026,1.097,0.151
			c0.302,0.1,0.61,0.31,0.925,0.625c0.313,0.315,0.623,0.656,0.925,1.02c0.302,0.366,0.586,0.73,0.851,1.097
			s0.485,0.661,0.662,0.889c0.654,0.807,1.41,1.732,2.268,2.778c0.855,1.045,1.65,2.035,2.383,2.967
			c0.73,0.958,1.442,1.917,2.135,2.873c0.692,0.958,1.366,1.915,2.021,2.873c0.077-2.293,0.126-4.574,0.151-6.842
			s0.038-4.549,0.038-6.842L108.005,5.96z"/>
		<path fill="#8DC63F" d="M131.933,26.714c0.2,0.73,0.164,1.335-0.113,1.814c-0.278,0.479-0.661,0.8-1.153,0.963
			c-0.491,0.164-1.027,0.146-1.606-0.056c-0.581-0.202-1.084-0.605-1.512-1.21c-0.707,0.528-1.394,0.902-2.061,1.115
			c-0.669,0.213-1.43,0.333-2.286,0.359c-1.286,0.051-2.434-0.095-3.441-0.436c-1.007-0.341-1.857-0.851-2.552-1.53
			c-0.694-0.679-1.204-1.53-1.53-2.552c-0.328-1.02-0.44-2.199-0.341-3.534c0.052-0.554,0.145-1.097,0.282-1.625
			c0.139-0.528,0.296-1.045,0.474-1.55c0.202-0.554,0.485-1.146,0.852-1.776c0.364-0.63,0.737-1.173,1.114-1.625
			c1.361-1.663,3.062-2.86,5.103-3.59c0.354-0.126,0.832-0.239,1.438-0.341c0.604-0.1,1.217-0.144,1.832-0.133
			c0.618,0.013,1.21,0.095,1.778,0.246c0.566,0.151,0.987,0.416,1.266,0.794c0.227,0.302,0.391,0.566,0.492,0.794
			c0.101,0.226,0.156,0.466,0.171,0.717c0.013,0.251,0.013,0.523,0,0.812c-0.013,0.29-0.02,0.648-0.02,1.077
			c0,0.707-0.008,1.394-0.019,2.061c-0.013,0.668-0.007,1.342,0.019,2.022c0,0.228,0,0.522,0,0.889s0.013,0.75,0.038,1.153
			c0.025,0.402,0.057,0.787,0.095,1.153c0.038,0.366,0.095,0.662,0.169,0.889L131.933,26.714z M123.919,25.013
			c0.277-0.176,0.592-0.372,0.945-0.586c0.352-0.213,0.667-0.459,0.945-0.738c-0.228-1.335-0.358-2.67-0.396-4.007
			c-0.039-1.335-0.031-2.684,0.02-4.046c-1.135,0.202-2.155,0.694-3.062,1.474c-0.907,0.781-1.537,1.701-1.891,2.76
			c-0.151,0.428-0.276,0.869-0.379,1.322c-0.1,0.454-0.139,0.895-0.112,1.325c0.023,0.579,0.175,1.065,0.453,1.455
			c0.277,0.392,0.61,0.687,1.002,0.889s0.805,0.315,1.248,0.341C123.13,25.228,123.541,25.164,123.919,25.013z"/>
		<path fill="#8DC63F" d="M135.072,15.79c-0.505-0.126-0.938-0.341-1.305-0.643s-0.617-0.654-0.756-1.059
			c-0.141-0.402-0.141-0.819,0-1.248c0.139-0.428,0.446-0.82,0.926-1.173c0.402-0.302,0.855-0.454,1.36-0.454
			c0.503,0,0.994,0,1.474,0c0-0.177-0.013-0.561-0.038-1.153c-0.025-0.592-0.033-1.241-0.021-1.947
			c0.013-0.705,0.057-1.379,0.132-2.022c0.076-0.643,0.213-1.089,0.415-1.343c0.503-0.705,1.128-1.04,1.873-1.002
			c0.743,0.038,1.354,0.397,1.832,1.077c0.101,0.125,0.195,0.277,0.282,0.454c0.088,0.177,0.133,0.341,0.133,0.492
			c0.024,0.907,0.031,1.814,0.019,2.722s-0.019,1.814-0.019,2.722h2.986c0.453,0,0.845,0.151,1.171,0.454
			c0.328,0.302,0.562,0.656,0.699,1.058c0.139,0.403,0.177,0.82,0.113,1.248c-0.062,0.428-0.259,0.781-0.585,1.058
			c-0.581,0.479-1.255,0.73-2.023,0.756c-0.769,0.026-1.556,0.039-2.362,0.039c0,1.386-0.008,2.772-0.021,4.159
			s-0.007,2.772,0.021,4.159c0,0.605,0.03,1.222,0.095,1.853c0.062,0.63,0.018,1.235-0.134,1.814
			c-0.125,0.454-0.34,0.812-0.643,1.077s-0.644,0.428-1.021,0.492c-0.379,0.062-0.769,0.039-1.171-0.075
			c-0.402-0.113-0.781-0.322-1.135-0.625c-0.177-0.177-0.31-0.478-0.397-0.907c-0.089-0.428-0.146-0.882-0.171-1.361
			c-0.025-0.554-0.025-1.146,0-1.776c0-0.504,0-1.158,0-1.965s-0.008-1.645-0.021-2.514c-0.013-0.869-0.018-1.694-0.018-2.476
			c0-0.782,0-1.399,0-1.853L135.072,15.79z"/>
		<path fill="#8DC63F" d="M164.935,25.428c0.227,0.328,0.359,0.712,0.397,1.153c0.038,0.44-0.013,0.858-0.151,1.248
			c-0.139,0.392-0.366,0.712-0.681,0.964c-0.315,0.251-0.726,0.364-1.229,0.34c-0.655-0.051-1.184-0.277-1.588-0.679
			c-0.404-0.403-0.782-0.856-1.135-1.361c-0.982,0.807-1.997,1.366-3.043,1.681c-1.045,0.315-2.072,0.385-3.08,0.208
			c-1.007-0.177-1.953-0.6-2.834-1.266c-0.884-0.667-1.625-1.568-2.23-2.704c-0.554-1.058-0.863-2.229-0.925-3.516
			c-0.063-1.284-0.082-2.506-0.057-3.667c0-0.402,0.013-0.8,0.038-1.191c0.025-0.39,0.051-0.799,0.077-1.228
			c0.023-0.328,0.038-0.648,0.038-0.964c0-0.315,0.02-0.61,0.057-0.889c0.038-0.277,0.112-0.554,0.226-0.831
			c0.112-0.277,0.284-0.542,0.51-0.794c0.303-0.328,0.667-0.523,1.097-0.586c0.428-0.062,0.838-0.019,1.228,0.133
			c0.391,0.151,0.73,0.384,1.021,0.7c0.29,0.315,0.446,0.699,0.474,1.153c0.051,1.286,0.019,2.583-0.095,3.895
			c-0.113,1.31-0.107,2.596,0.02,3.856c0.052,0.605,0.208,1.223,0.474,1.853c0.265,0.63,0.688,1.084,1.267,1.361
			c0.579,0.251,1.166,0.233,1.758-0.056c0.592-0.29,1.076-0.636,1.455-1.041c0.177-0.202,0.347-0.422,0.511-0.661
			s0.346-0.448,0.548-0.625c-0.1-0.882-0.164-1.764-0.189-2.647c-0.025-0.882-0.025-1.764,0-2.647c0-0.477,0.021-1.002,0.057-1.568
			c0.038-0.566,0.139-1.109,0.303-1.625c0.163-0.517,0.409-0.971,0.737-1.361c0.326-0.39,0.794-0.636,1.399-0.738
			c0.276-0.051,0.548-0.025,0.812,0.075c0.264,0.1,0.497,0.241,0.699,0.416c0.352,0.302,0.592,0.643,0.718,1.02
			s0.189,0.782,0.189,1.209c0,0.428-0.031,0.864-0.095,1.304c-0.063,0.441-0.107,0.851-0.133,1.228
			c-0.052,0.705-0.09,1.45-0.113,2.229c-0.025,0.782,0,1.563,0.076,2.345c0.077,0.781,0.221,1.538,0.434,2.268
			C164.185,24.157,164.505,24.823,164.935,25.428z"/>
		<path fill="#8DC63F" d="M169.053,16.715c0.025-0.164,0.015-0.459-0.036-0.889c-0.404-0.228-0.718-0.517-0.946-0.869
			c-0.227-0.354-0.359-0.73-0.397-1.135c-0.038-0.403,0.038-0.787,0.228-1.153c0.189-0.364,0.496-0.674,0.927-0.925
			c0.579-0.328,1.217-0.39,1.909-0.189c0.691,0.202,1.289,0.504,1.796,0.907c0.63-0.478,1.286-0.882,1.964-1.209
			c0.681-0.328,1.373-0.548,2.08-0.662c0.707-0.113,1.425-0.095,2.153,0.057c0.732,0.151,1.45,0.466,2.156,0.945
			c0.351,0.228,0.682,0.51,0.984,0.851c0.302,0.34,0.491,0.725,0.564,1.153c0.128,0.63,0.076,1.179-0.149,1.645
			c-0.229,0.466-0.543,0.807-0.947,1.02c-0.4,0.215-0.856,0.277-1.359,0.189c-0.506-0.087-0.983-0.359-1.438-0.812
			c-0.149-0.1-0.259-0.182-0.32-0.246c-0.062-0.062-0.197-0.146-0.397-0.246c-0.404-0.1-0.802-0.075-1.191,0.075
			c-0.39,0.151-0.769,0.359-1.133,0.625c-0.368,0.264-0.707,0.554-1.021,0.869c-0.317,0.315-0.601,0.599-0.853,0.851v9.64
			c0,0.377-0.073,0.743-0.226,1.097c-0.227,0.58-0.587,0.982-1.075,1.209c-0.491,0.226-0.983,0.29-1.476,0.189
			c-0.491-0.1-0.918-0.353-1.286-0.756c-0.364-0.402-0.546-0.92-0.546-1.55V16.812C169.017,16.912,169.032,16.879,169.053,16.715z"
			/>
		<path fill="#8DC63F" d="M196.61,23.312c0.605-0.151,1.141-0.157,1.606-0.018c0.467,0.138,0.827,0.372,1.079,0.699
			c0.251,0.328,0.364,0.73,0.339,1.209c-0.025,0.479-0.241,0.984-0.642,1.512c-0.328,0.428-0.783,0.794-1.362,1.097
			s-1.122,0.543-1.625,0.718c-1.235,0.454-2.404,0.769-3.516,0.945c-1.107,0.177-2.149,0.177-3.119,0
			c-0.969-0.177-1.875-0.543-2.721-1.097c-0.845-0.554-1.632-1.335-2.36-2.344c-0.507-0.682-0.878-1.456-1.115-2.325
			c-0.24-0.869-0.375-1.758-0.396-2.665c-0.025-0.907,0.051-1.801,0.226-2.683c0.179-0.882,0.43-1.676,0.758-2.381
			c0.426-0.882,1.107-1.689,2.04-2.419s1.968-1.31,3.1-1.738c1.137-0.428,2.295-0.674,3.479-0.738
			c1.184-0.062,2.229,0.121,3.137,0.548c0.758,0.354,1.406,0.864,1.949,1.53c0.539,0.668,0.911,1.394,1.115,2.173
			c0.2,0.781,0.218,1.568,0.055,2.363c-0.164,0.794-0.572,1.519-1.229,2.173c-0.63,0.63-1.322,1.141-2.076,1.53
			c-0.758,0.392-1.538,0.73-2.347,1.02c-0.805,0.29-1.628,0.536-2.474,0.738s-1.657,0.428-2.437,0.682
			c0.527,0.604,1.132,0.989,1.813,1.153s1.392,0.195,2.135,0.095s1.494-0.308,2.248-0.625c0.758-0.315,1.461-0.662,2.117-1.041
			L196.61,23.312z M188.974,16.81c-0.58,0.328-1.005,0.738-1.285,1.228c-0.277,0.492-0.478,1.178-0.605,2.06
			c0.656-0.202,1.392-0.416,2.211-0.643c0.819-0.226,1.596-0.466,2.324-0.718c0.732-0.251,1.349-0.53,1.854-0.833
			c0.503-0.302,0.754-0.63,0.754-0.982c0-0.202-0.029-0.397-0.095-0.586c-0.062-0.189-0.192-0.322-0.396-0.397
			c-0.703-0.251-1.436-0.303-2.193-0.151c-0.754,0.151-1.385,0.366-1.891,0.643L188.974,16.81z"/>
		<path fill="#F15A29" d="M108.062,57.168c-0.328,0.402-0.705,0.682-1.135,0.833c-0.428,0.15-0.869,0.15-1.322,0
			c-0.454-0.151-0.833-0.492-1.135-1.021c-0.126-0.202-0.227-0.415-0.303-0.644c-0.076-0.226-0.113-0.453-0.113-0.679v-8.923
			c-0.328-0.202-0.573-0.466-0.735-0.794c-0.164-0.328-0.246-0.674-0.246-1.041c0-0.364,0.089-0.712,0.264-1.04
			c0.177-0.328,0.416-0.604,0.718-0.831c-0.025-0.479-0.03-0.882-0.018-1.209c0.011-0.328,0.018-0.643,0.018-0.945
			c0-0.303,0-0.61,0-0.926c0-0.315-0.025-0.687-0.074-1.115c-0.025-0.352-0.107-0.699-0.246-1.04s-0.259-0.681-0.359-1.02
			c-0.1-0.341-0.14-0.687-0.112-1.041c0.023-0.352,0.175-0.692,0.453-1.02c0.377-0.454,0.838-0.725,1.379-0.812
			s1.09-0.156,1.646-0.208c1.158-0.075,2.312-0.113,3.459-0.113s2.299-0.025,3.459-0.075c0.328,0,0.682-0.031,1.059-0.095
			c0.379-0.062,0.756-0.113,1.135-0.151s0.756-0.038,1.135,0s0.718,0.146,1.021,0.322c0.379,0.226,0.654,0.518,0.832,0.869
			c0.176,0.354,0.259,0.718,0.246,1.097c-0.013,0.377-0.12,0.743-0.322,1.097s-0.491,0.63-0.869,0.831
			c-0.655,0.354-1.373,0.536-2.154,0.548c-0.782,0.013-1.525,0.031-2.23,0.057c-0.832,0.025-1.663,0.031-2.495,0.018
			c-0.833-0.013-1.663,0.005-2.496,0.057c0.052,0.479,0.088,1.045,0.113,1.701c0.023,0.656,0.038,1.614,0.038,2.873
			c0.806,0,1.625-0.013,2.458-0.038c0.83-0.025,1.65-0.1,2.457-0.226c0.428-0.051,0.882-0.146,1.36-0.284
			c0.479-0.138,0.933-0.182,1.361-0.133c0.504,0.051,0.945,0.241,1.322,0.566c0.379,0.328,0.636,0.7,0.774,1.115
			c0.139,0.415,0.133,0.845-0.019,1.286c-0.151,0.441-0.491,0.812-1.02,1.115c-0.631,0.353-1.305,0.612-2.024,0.774
			c-0.718,0.164-1.455,0.277-2.211,0.341c-0.757,0.063-1.513,0.089-2.269,0.077c-0.756-0.013-1.488-0.02-2.193-0.02v8.428
			C108.59,56.287,108.39,56.766,108.062,57.168z"/>
		<path fill="#F15A29" d="M122.124,44.94c0.025-0.164,0.013-0.459-0.038-0.889c-0.403-0.228-0.718-0.517-0.946-0.869
			c-0.226-0.354-0.358-0.73-0.396-1.135c-0.038-0.402,0.038-0.787,0.228-1.153c0.189-0.364,0.497-0.674,0.926-0.925
			c0.579-0.328,1.217-0.39,1.908-0.189c0.694,0.202,1.292,0.504,1.797,0.907c0.63-0.478,1.286-0.882,1.965-1.21
			c0.682-0.328,1.374-0.548,2.081-0.661c0.705-0.113,1.423-0.095,2.153,0.057c0.73,0.151,1.449,0.466,2.154,0.945
			c0.352,0.228,0.682,0.51,0.984,0.851c0.302,0.341,0.491,0.725,0.566,1.153c0.125,0.63,0.074,1.179-0.151,1.645
			c-0.228,0.466-0.543,0.807-0.945,1.02c-0.403,0.215-0.856,0.277-1.361,0.189c-0.504-0.087-0.983-0.359-1.437-0.812
			c-0.151-0.1-0.259-0.182-0.323-0.246c-0.062-0.062-0.194-0.146-0.396-0.246c-0.403-0.101-0.8-0.075-1.189,0.075
			c-0.392,0.151-0.77,0.359-1.135,0.625c-0.366,0.264-0.705,0.554-1.021,0.869c-0.315,0.315-0.6,0.599-0.851,0.851v9.64
			c0,0.379-0.075,0.745-0.227,1.097c-0.228,0.58-0.586,0.982-1.076,1.21s-0.983,0.29-1.474,0.189
			c-0.492-0.101-0.92-0.354-1.286-0.756s-0.548-0.92-0.548-1.551V45.037C122.086,45.135,122.098,45.104,122.124,44.94z"/>
		<path fill="#F15A29" d="M149.681,51.536c0.604-0.15,1.141-0.156,1.606-0.018c0.467,0.138,0.825,0.371,1.077,0.699
			c0.251,0.328,0.364,0.732,0.34,1.21c-0.025,0.479-0.24,0.983-0.643,1.512c-0.328,0.428-0.781,0.794-1.361,1.097
			c-0.579,0.302-1.122,0.543-1.624,0.718c-1.235,0.453-2.407,0.769-3.517,0.945s-2.149,0.177-3.118,0
			c-0.971-0.177-1.878-0.543-2.722-1.097c-0.845-0.554-1.632-1.335-2.362-2.345c-0.505-0.681-0.877-1.455-1.115-2.324
			c-0.24-0.869-0.371-1.758-0.397-2.665c-0.025-0.907,0.052-1.802,0.229-2.683c0.177-0.882,0.428-1.676,0.756-2.381
			c0.428-0.882,1.109-1.689,2.042-2.419s1.966-1.31,3.101-1.738s2.293-0.674,3.478-0.738c1.184-0.062,2.231,0.12,3.139,0.548
			c0.756,0.354,1.404,0.863,1.947,1.53c0.541,0.668,0.912,1.394,1.114,2.173c0.201,0.781,0.221,1.568,0.057,2.362
			c-0.164,0.794-0.573,1.52-1.228,2.173c-0.631,0.63-1.322,1.141-2.078,1.53c-0.757,0.392-1.538,0.73-2.345,1.02
			c-0.808,0.29-1.631,0.535-2.476,0.736c-0.846,0.202-1.658,0.43-2.438,0.681c0.528,0.605,1.135,0.989,1.814,1.153
			c0.681,0.164,1.392,0.195,2.135,0.095s1.494-0.308,2.25-0.625c0.756-0.314,1.461-0.661,2.116-1.04L149.681,51.536z
			 M142.046,45.035c-0.579,0.328-1.007,0.738-1.286,1.228c-0.276,0.492-0.479,1.179-0.604,2.061
			c0.654-0.201,1.392-0.416,2.211-0.643c0.818-0.226,1.595-0.466,2.325-0.718s1.348-0.53,1.853-0.833
			c0.503-0.302,0.756-0.63,0.756-0.982c0-0.202-0.031-0.397-0.095-0.586s-0.195-0.323-0.397-0.397
			c-0.705-0.251-1.438-0.302-2.193-0.151c-0.756,0.151-1.386,0.366-1.891,0.643L142.046,45.035z"/>
		<path fill="#F15A29" d="M154.67,54.07c-0.151-0.428-0.213-0.851-0.189-1.266c0.025-0.416,0.133-0.795,0.322-1.135
			c0.189-0.341,0.459-0.605,0.812-0.795c0.352-0.189,0.781-0.258,1.286-0.208c0.277,0.025,0.528,0.1,0.756,0.228
			c0.228,0.128,0.434,0.277,0.625,0.454c0.189,0.177,0.377,0.366,0.566,0.566c0.189,0.202,0.383,0.379,0.585,0.53
			c0.428,0.328,0.882,0.566,1.36,0.718c0.478,0.151,0.982,0.265,1.513,0.341c0.352,0,0.636-0.088,0.851-0.265
			c0.213-0.176,0.358-0.39,0.436-0.643c0.074-0.251,0.095-0.522,0.056-0.812c-0.038-0.29-0.133-0.522-0.284-0.7
			c-0.428-0.428-0.95-0.705-1.568-0.831c-0.617-0.125-1.191-0.277-1.72-0.454c-0.756-0.251-1.499-0.574-2.231-0.963
			c-0.73-0.39-1.322-0.925-1.775-1.607c-0.479-0.705-0.764-1.456-0.851-2.25c-0.09-0.794-0.026-1.568,0.189-2.325
			c0.213-0.756,0.573-1.448,1.076-2.078s1.107-1.146,1.814-1.55c0.53-0.302,1.109-0.498,1.739-0.586
			c0.631-0.087,1.269-0.108,1.909-0.057c0.644,0.051,1.279,0.169,1.909,0.359c0.629,0.189,1.21,0.397,1.738,0.623
			c0.604,0.277,1.058,0.668,1.36,1.171c0.303,0.504,0.446,1.015,0.434,1.53c-0.013,0.518-0.189,0.964-0.528,1.343
			c-0.341,0.377-0.838,0.566-1.494,0.566c-0.402,0-0.769-0.069-1.096-0.208c-0.328-0.139-0.667-0.271-1.021-0.397
			c-0.454-0.177-0.945-0.295-1.474-0.359c-0.528-0.062-0.958-0.031-1.286,0.095c-0.101,0.025-0.213,0.107-0.341,0.246
			c-0.126,0.139-0.221,0.31-0.282,0.51c-0.063,0.202-0.076,0.402-0.038,0.605c0.038,0.202,0.171,0.366,0.396,0.492
			c0.605,0.328,1.248,0.579,1.928,0.756c0.682,0.177,1.348,0.379,2.004,0.605c0.654,0.226,1.266,0.517,1.832,0.869
			c0.567,0.352,1.039,0.856,1.418,1.512c0.554,0.958,0.837,1.96,0.852,3.006c0.011,1.047-0.196,2.023-0.624,2.929
			c-0.43,0.907-1.059,1.682-1.891,2.324c-0.833,0.644-1.802,1.027-2.911,1.153c-0.781,0.075-1.551,0.031-2.307-0.133
			s-1.488-0.428-2.193-0.794s-1.36-0.8-1.965-1.305c-0.605-0.503-1.136-1.033-1.589-1.589L154.67,54.07z"/>
		<path fill="#F15A29" d="M175.046,57.376c-0.503,0.364-1.027,0.535-1.566,0.51c-0.543-0.025-1.021-0.246-1.439-0.661
			c-0.415-0.415-0.623-0.989-0.623-1.72V34.487c0-0.579,0.227-1.071,0.682-1.474c0.452-0.403,0.954-0.656,1.512-0.756
			c0.554-0.101,1.071-0.013,1.549,0.264c0.48,0.277,0.743,0.794,0.794,1.55c0.102,1.312,0.146,2.59,0.135,3.836
			c-0.015,1.248-0.033,2.501-0.059,3.762c0.933-0.63,1.902-1.051,2.911-1.266c1.01-0.213,1.979-0.208,2.911,0.02
			c0.933,0.226,1.804,0.68,2.608,1.361c0.806,0.681,1.461,1.625,1.968,2.834c0.35,0.807,0.59,1.67,0.718,2.59
			c0.124,0.92,0.192,1.853,0.207,2.796c0.012,0.945,0,1.883-0.04,2.816c-0.036,0.933-0.055,1.814-0.055,2.647
			c0,0.529-0.138,1.009-0.415,1.437c-0.276,0.429-0.627,0.743-1.042,0.946c-0.415,0.2-0.856,0.264-1.322,0.189
			c-0.467-0.075-0.886-0.354-1.265-0.833c-0.379-0.505-0.611-1.097-0.699-1.776c-0.091-0.679-0.113-1.404-0.076-2.173
			c0.036-0.769,0.095-1.556,0.171-2.363c0.073-0.805,0.095-1.581,0.055-2.324c-0.036-0.743-0.183-1.43-0.434-2.061
			c-0.251-0.628-0.696-1.146-1.322-1.55c-0.507-0.075-0.958-0.044-1.363,0.095c-0.4,0.138-0.769,0.348-1.096,0.625
			c-0.328,0.277-0.635,0.592-0.926,0.945c-0.288,0.354-0.583,0.705-0.886,1.059c-0.076,0.125-0.163,0.246-0.266,0.359
			c-0.099,0.113-0.215,0.233-0.339,0.359v7.183C175.877,56.413,175.549,57.012,175.046,57.376z"/>
	</g>
	<g>
		<g id="XMLID_00000160900224100801731590000009314794629366742164_">
			<g id="XMLID_00000061448316011318969220000006853727014305164722_">
				
					<linearGradient id="XMLID_2_" gradientUnits="userSpaceOnUse" x1="2920.436" y1="-2503.1655" x2="3137.8997" y2="-3119.7698" gradientTransform="matrix(0.0976 0.0042 0.0042 -0.0976 -255.7239 -247.7125)">
					<stop  offset="0.1168" style="stop-color:#78A435"/>
					<stop  offset="0.4044" style="stop-color:#589336"/>
					<stop  offset="1" style="stop-color:#0A6937"/>
				</linearGradient>
				<path id="XMLID_00000013878663191530256450000002044974888718180252_" fill="url(#XMLID_2_)" d="M39.862,32.646
					C27.356,17.874,21.374,9.188,22.323,0c0,0-20.515,24.632-9.093,41.001c11.667,16.723,27.891,14.154,26.758,25.913
					C39.987,66.915,53.619,48.895,39.862,32.646z"/>
				
					<linearGradient id="XMLID_3_" gradientUnits="userSpaceOnUse" x1="2639.1099" y1="-2897.8335" x2="3068.2861" y2="-2897.8335" gradientTransform="matrix(0.0977 0 0 -0.0977 -257.7259 -245.0226)">
					<stop  offset="0" style="stop-color:#B8D844"/>
					<stop  offset="1" style="stop-color:#0A933C"/>
				</linearGradient>
				<path id="XMLID_00000004517045722267340100000003410115782841580217_" fill="url(#XMLID_3_)" d="M30.857,34.932
					C14.956,23.898,6.928,17.056,5.469,7.935c0,0-4.195,22.985,11.128,34.753c15.23,11.695,23.78,12.853,22.903,23.881
					c0.137,0.448,0.257,0.916,0.344,1.434C39.845,68.001,48.349,47.069,30.857,34.932z"/>
				
					<linearGradient id="XMLID_4_" gradientUnits="userSpaceOnUse" x1="3028.7778" y1="-3144.7148" x2="3198.7786" y2="-2879.4392" gradientTransform="matrix(0.0977 0 0 -0.0977 -257.7259 -245.0226)">
					<stop  offset="0.1168" style="stop-color:#78A435"/>
					<stop  offset="0.4044" style="stop-color:#589336"/>
					<stop  offset="1" style="stop-color:#0A6937"/>
				</linearGradient>
				<path id="XMLID_00000026881999131004662550000003746596597351283333_" fill="url(#XMLID_4_)" d="M62.98,29.075
					c-1.492-9.283-5.061-12.258-6.738-13.99c0.035,0.077,2.225,2.771,1.74,9.812C57.837,26.98,57,29.163,55.89,31.429
					c-1.095,2.264-2.536,4.572-4.042,6.86c-1.59,2.368-3.129,4.658-4.587,6.829c-1.494,2.253-2.862,4.514-4.031,6.697
					c-0.568,1.104-1.106,2.173-1.558,3.231c-0.446,1.061-0.847,2.084-1.155,3.075c-0.632,1.975-0.949,3.783-1.046,5.263
					c-0.096,1.484,0.013,2.636,0.148,3.402c0.047,0.381,0.14,0.672,0.178,0.865c0.045,0.191,0.069,0.292,0.069,0.292
					s0.16-0.385,0.481-1.059c0.313-0.674,0.821-1.627,1.543-2.728c0.741-1.098,1.685-2.348,2.898-3.67
					c1.199-1.33,2.64-2.747,4.287-4.265c1.626-1.532,3.483-3.143,5.438-4.949c1.958-1.804,4.044-3.775,6.133-6.046
					c0.352-0.386,0.295-0.402,0.648-0.805C61.978,40.515,63.802,34.183,62.98,29.075z"/>
				
					<linearGradient id="XMLID_5_" gradientUnits="userSpaceOnUse" x1="2639.1099" y1="-2897.8257" x2="3068.2847" y2="-2897.8257" gradientTransform="matrix(0.0977 0 0 -0.0977 -257.7259 -245.0226)">
					<stop  offset="0" style="stop-color:#B8D844"/>
					<stop  offset="1" style="stop-color:#0A933C"/>
				</linearGradient>
				<path id="XMLID_00000119088384788179962600000003928746367830397096_" fill="url(#XMLID_5_)" d="M30.857,34.932
					C14.956,23.898,6.928,17.056,5.469,7.935c0,0-13.444,29.101,1.823,41.959c15.599,13.136,30.604,6.455,32.551,18.107
					C39.845,68.001,48.349,47.069,30.857,34.932z"/>
				
					<linearGradient id="XMLID_6_" gradientUnits="userSpaceOnUse" x1="2969.0454" y1="-2751.8735" x2="3362.5093" y2="-2751.8735" gradientTransform="matrix(0.0977 0 0 -0.0977 -257.7259 -245.0226)">
					<stop  offset="0" style="stop-color:#B8D844"/>
					<stop  offset="1" style="stop-color:#0A933C"/>
				</linearGradient>
				<path id="XMLID_00000146499032561284729870000014637194315382867129_" fill="url(#XMLID_6_)" d="M70.409,20.246
					c-0.286-2.024-0.825-3.969-1.539-5.76c-0.171-0.45-0.403-0.955-0.607-1.423c-0.116-0.27-0.186-0.386-0.275-0.57l-0.26-0.504
					l-0.066-0.126l-0.073-0.153l-0.023-0.043l-0.047-0.089l-0.195-0.354c-0.125-0.235-0.268-0.466-0.41-0.698
					c-0.282-0.461-0.585-0.916-0.918-1.355c-1.313-1.761-3.011-3.315-4.913-4.419c-1.898-1.109-3.953-1.769-5.91-2.035
					c-1.962-0.271-3.827-0.18-5.53,0.124c-3.417,0.61-6.19,2.031-8.419,3.589c-2.228,1.583-3.911,3.364-5.167,5.062
					c-1.255,1.702-2.089,3.315-2.639,4.674c-0.558,1.359-0.834,2.463-0.997,3.219c-0.087,0.377-0.122,0.667-0.155,0.861
					c-0.029,0.195-0.046,0.297-0.046,0.297s0.29-0.282,0.834-0.814c0.539-0.516,1.341-1.255,2.381-2.089
					c1.049-0.827,2.341-1.751,3.873-2.604c1.526-0.853,3.29-1.643,5.204-2.179c1.9-0.546,3.979-0.821,5.884-0.639
					c9.642,0.916,14.088,17.334,10.531,32.658c1.729-1.978,4.217-5.017,5.727-7.596c1.807-3.077,3.333-6.78,3.818-10.879
					C70.713,24.368,70.709,22.27,70.409,20.246z"/>
				
					<linearGradient id="XMLID_7_" gradientUnits="userSpaceOnUse" x1="2639.1099" y1="-2890.4937" x2="3068.2876" y2="-2890.4937" gradientTransform="matrix(0.0977 0 0 -0.0977 -257.7259 -245.0226)">
					<stop  offset="0" style="stop-color:#B8D844"/>
					<stop  offset="1" style="stop-color:#0A933C"/>
				</linearGradient>
				<path id="XMLID_00000085949530148088621860000016273474623744100788_" fill="url(#XMLID_7_)" d="M16.598,42.688
					C1.274,30.922,5.469,7.935,5.469,7.935S-7.975,37.038,7.292,49.895c14.907,12.553,29.265,7.021,32.208,16.675
					C40.377,55.542,31.828,54.383,16.598,42.688z"/>
				
					<linearGradient id="XMLID_8_" gradientUnits="userSpaceOnUse" x1="2607.1001" y1="-2661.5327" x2="3187.3638" y2="-3564.8315" gradientTransform="matrix(0.0977 0 0 -0.0977 -257.7259 -245.0226)">
					<stop  offset="0.1168" style="stop-color:#78A435"/>
					<stop  offset="0.4044" style="stop-color:#589336"/>
					<stop  offset="1" style="stop-color:#0A6937"/>
				</linearGradient>
				
					<path id="XMLID_00000150780776243271159820000008265213621600405134_" opacity="0.5" fill="url(#XMLID_8_)" enable-background="new    " d="
					M16.049,46.428C0.726,34.662,5.469,7.935,5.469,7.935S-7.975,37.038,7.292,49.895c14.907,12.553,30.922,7.024,32.551,18.107
					C39.037,56.577,31.28,58.123,16.049,46.428z"/>
				<path id="XMLID_00000104696037926452806210000000605886295833240490_" fill="none" d="M30.857,34.932
					C14.956,23.898,6.928,17.056,5.469,7.935c0,0-13.444,29.101,1.823,41.959c15.599,13.136,30.604,6.455,32.551,18.107
					C39.845,68.001,48.349,47.069,30.857,34.932z"/>
				
					<linearGradient id="XMLID_9_" gradientUnits="userSpaceOnUse" x1="2806.6841" y1="-2895.5586" x2="3120.5366" y2="-3223.4224" gradientTransform="matrix(0.0977 0 0 -0.0977 -257.7259 -245.0226)">
					<stop  offset="0" style="stop-color:#B8D844"/>
					<stop  offset="1" style="stop-color:#0A933C"/>
				</linearGradient>
				
					<path id="XMLID_00000058583490045500538830000006332070495608674995_" opacity="0.8" fill="url(#XMLID_9_)" enable-background="new    " d="
					M39.987,66.915c0,0-0.013-0.139-0.035-0.396c-0.027-0.257-0.083-0.634-0.155-1.107c-0.078-0.474-0.188-1.046-0.339-1.69
					c-0.075-0.322-0.158-0.665-0.27-1.021c-0.097-0.356-0.209-0.729-0.342-1.111c-0.251-0.769-0.598-1.57-0.98-2.4
					c-0.199-0.414-0.438-0.818-0.662-1.239c-0.27-0.396-0.502-0.823-0.791-1.224c-0.574-0.804-1.231-1.583-1.973-2.297l-0.561-0.536
					l-0.126-0.118l-0.158-0.13l-0.319-0.26l-0.64-0.523L32,52.392c-0.829-0.643-1.745-1.246-2.642-1.812
					c-0.907-0.559-1.803-1.122-2.692-1.641c-0.891-0.52-1.747-1.041-2.556-1.56c-0.812-0.504-1.561-1.038-2.222-1.568
					c-0.668-0.523-1.231-1.073-1.687-1.596c-0.448-0.53-0.8-1.024-1.018-1.472c-0.259-0.421-0.361-0.802-0.45-1.046
					c-0.085-0.246-0.131-0.375-0.131-0.375s0.073,0.118,0.211,0.338c0.137,0.221,0.324,0.545,0.642,0.904
					c0.28,0.381,0.705,0.774,1.189,1.206c0.502,0.419,1.102,0.845,1.789,1.271c0.346,0.209,0.703,0.43,1.095,0.632
					c0.383,0.213,0.778,0.434,1.197,0.647c0.839,0.432,1.725,0.885,2.643,1.355c0.916,0.486,1.88,0.977,2.82,1.554
					c0.47,0.292,0.949,0.57,1.414,0.891c0.468,0.306,0.938,0.621,1.397,0.973l0.682,0.522l0.628,0.534l0.313,0.266l0.156,0.133
					c0.087,0.075,0.113,0.108,0.171,0.164l0.61,0.604c0.814,0.798,1.468,1.72,2.055,2.623c0.288,0.457,0.53,0.929,0.776,1.385
					c0.202,0.475,0.421,0.933,0.594,1.392c0.346,0.918,0.601,1.807,0.765,2.638c0.186,0.827,0.273,1.6,0.325,2.28
					c0.062,0.682,0.054,1.277,0.045,1.766C40.091,66.368,39.987,66.915,39.987,66.915z"/>
			</g>
			<g id="XMLID_00000056420014938079042470000008346916927353972403_">
				<g>
					<path id="XMLID_00000179617171952976447580000013013762245735436176_" fill="#A8D593" d="M5.323,25.086
						c0,0,0.124,0.568,0.323,1.563c0.105,0.495,0.235,1.098,0.384,1.789c0.084,0.343,0.175,0.707,0.27,1.091
						c0.045,0.191,0.093,0.39,0.142,0.59c0.055,0.2,0.113,0.404,0.171,0.612c0.12,0.416,0.233,0.853,0.372,1.297
						c0.146,0.443,0.297,0.898,0.454,1.368c0.151,0.47,0.362,0.935,0.546,1.417c0.1,0.238,0.184,0.488,0.297,0.727
						c0.113,0.239,0.226,0.481,0.341,0.723c0.229,0.486,0.45,0.987,0.738,1.461c0.136,0.241,0.273,0.483,0.41,0.727
						c0.142,0.24,0.261,0.497,0.424,0.727c0.312,0.47,0.625,0.943,0.94,1.419c0.326,0.468,0.698,0.905,1.046,1.361
						c0.178,0.224,0.342,0.459,0.532,0.674l0.576,0.636c0.39,0.417,0.75,0.86,1.159,1.25c0.833,0.763,1.59,1.585,2.448,2.244
						c0.416,0.346,0.821,0.685,1.222,1.019c0.403,0.328,0.825,0.614,1.223,0.911c0.4,0.293,0.789,0.578,1.166,0.854
						c0.374,0.281,0.765,0.506,1.124,0.749c0.73,0.465,1.388,0.916,1.986,1.292c0.61,0.354,1.142,0.665,1.581,0.92
						c0.876,0.512,1.374,0.815,1.374,0.815s-0.525-0.245-1.439-0.69c-0.457-0.224-1.011-0.497-1.646-0.811
						c-0.626-0.331-1.317-0.737-2.073-1.173c-0.373-0.226-0.781-0.434-1.171-0.698c-0.392-0.264-0.794-0.537-1.21-0.818
						c-0.412-0.286-0.851-0.559-1.27-0.876c-0.414-0.328-0.836-0.662-1.266-1.002c-0.43-0.341-0.873-0.68-1.279-1.075
						c-0.415-0.385-0.834-0.772-1.257-1.166c-0.419-0.396-0.792-0.845-1.195-1.27l-0.594-0.647c-0.195-0.218-0.366-0.459-0.55-0.688
						c-0.354-0.47-0.73-0.922-1.061-1.403c-0.318-0.49-0.637-0.978-0.953-1.462c-0.312-0.488-0.559-1.007-0.834-1.503
						c-0.283-0.492-0.498-1.009-0.722-1.512c-0.111-0.251-0.222-0.501-0.332-0.747c-0.109-0.246-0.188-0.503-0.28-0.75
						c-0.171-0.501-0.368-0.98-0.505-1.463c-0.14-0.483-0.275-0.953-0.406-1.406c-0.118-0.458-0.209-0.904-0.31-1.33
						c-0.209-0.849-0.313-1.645-0.444-2.342c-0.1-0.702-0.188-1.313-0.261-1.816C5.385,25.663,5.323,25.086,5.323,25.086z"/>
				</g>
			</g>
			<g id="XMLID_00000005950151099518599670000006019445171140035756_">
				<g>
					<path id="XMLID_00000060743455285004861780000004603764793846480774_" fill="#A8D593" d="M59.355,19.674
						c0,0,0.169,0.322,0.43,0.905c0.258,0.583,0.608,1.424,0.963,2.461c0.179,0.518,0.364,1.08,0.534,1.687
						c0.173,0.603,0.348,1.244,0.488,1.915c0.079,0.335,0.147,0.676,0.209,1.023c0.069,0.346,0.131,0.7,0.177,1.059
						c0.053,0.357,0.102,0.718,0.135,1.084c0.04,0.364,0.077,0.73,0.093,1.098c0.044,0.742,0.047,1.461,0.046,2.183
						c0.001,0.723-0.033,1.428-0.066,2.111c-0.031,0.683-0.087,1.342-0.149,1.965c-0.056,0.625-0.129,1.211-0.206,1.754
						c-0.293,2.167-0.67,3.578-0.67,3.578s0.137-1.45,0.259-3.618c0.031-0.543,0.055-1.129,0.08-1.751
						c0.025-0.621,0.038-1.275,0.051-1.953c0.015-0.676,0.007-1.377,0.004-2.084c-0.005-0.707-0.019-1.439-0.067-2.146
						c-0.011-0.357-0.044-0.714-0.079-1.069c-0.027-0.355-0.071-0.708-0.12-1.058c-0.043-0.35-0.093-0.698-0.147-1.04
						c-0.049-0.343-0.105-0.682-0.171-1.013c-0.058-0.332-0.124-0.657-0.189-0.976c-0.062-0.319-0.125-0.63-0.198-0.933
						c-0.137-0.605-0.273-1.175-0.408-1.7C59.812,21.058,59.355,19.674,59.355,19.674z"/>
				</g>
			</g>
		</g>
		<g id="XMLID_00000029740097737502142540000012571272685330223792_" opacity="0.4">
			
				<image overflow="visible" enable-background="new    " width="352" height="102" xlink:href="615BAB10E7D527DA.png"  transform="matrix(0.1822 0 0 0.1822 3.2666 59.8989)">
			</image>
		</g>
	</g>
</g>
</svg>
