<?xml version="1.0" encoding="utf-8"?>
<!-- Generator: Adobe Illustrator 16.0.0, SVG Export Plug-In . SVG Version: 6.00 Build 0)  -->
<!DOCTYPE svg PUBLIC "-//W3C//DTD SVG 1.1//EN" "http://www.w3.org/Graphics/SVG/1.1/DTD/svg11.dtd">
<svg version="1.1" id="Layer_1" xmlns="http://www.w3.org/2000/svg" xmlns:xlink="http://www.w3.org/1999/xlink" x="0px" y="0px"
	 width="199.051px" height="80.935px" viewBox="0 0 199.051 80.935" enable-background="new 0 0 199.051 80.935"
	 xml:space="preserve">
<g>
	<polygon fill="#FFFFFF" points="90.12,39.352 90.12,19.042 86.087,19.042 79.414,32.533 72.711,19.042 68.648,19.042 
		68.648,39.352 71.87,39.352 71.87,24.178 78.282,37.233 80.516,37.233 86.928,24.178 86.958,39.352 	"/>
	<polygon fill="#FFFFFF" points="98.906,36.247 98.906,19.042 95.483,19.042 95.483,39.352 107.697,39.352 107.697,36.247 	"/>
	<path fill="#FFFFFF" d="M121.883,30.473h5.223c2.669,0,4.265,1.074,4.265,2.872c0,1.916-1.596,2.959-4.265,2.959h-5.223V30.473z
		 M121.883,22.087h5.223c2.176,0,3.482,0.929,3.482,2.641s-1.305,2.727-3.482,2.727h-5.223V22.087z M118.458,19.042v20.311h9.023
		c4.585,0,7.398-2.088,7.398-5.571c0-2.727-1.624-4.672-4.352-5.136c2.206-0.523,3.568-2.233,3.568-4.526
		c0-3.163-2.611-5.078-6.818-5.078H118.458z"/>
	<rect x="138.94" y="19.042" fill="#FFFFFF" width="3.423" height="20.311"/>
	<path fill="#FFFFFF" d="M161.599,29.371v5.659c-1.45,0.871-3.163,1.392-4.672,1.392c-4.149,0-7.429-3.162-7.429-7.224
		c0-4.034,3.25-7.196,7.398-7.196c2.118,0,4.294,0.871,5.861,2.321l1.943-2.524c-2.003-1.74-4.902-2.844-7.805-2.844
		c-6.151,0-10.881,4.439-10.881,10.243s4.672,10.3,10.677,10.3c2.784,0,5.831-1.074,7.892-2.641v-7.486H161.599z"/>
	<polygon fill="#FFFFFF" points="82.519,48.186 82.519,45.11 66.241,45.11 66.241,48.186 72.653,48.186 72.653,65.42 76.077,65.42 
		76.077,48.186 	"/>
	<path fill="#FFFFFF" d="M88.87,56.223v-8.037h4.817c3.135,0,4.933,1.277,4.933,3.946c0,2.757-1.798,4.091-4.933,4.091H88.87z
		 M98.327,65.42h3.889l-4.555-6.79c2.699-1.044,4.207-3.338,4.207-6.586c0-4.409-2.989-6.935-8.182-6.935h-8.24V65.42h3.423v-6.122
		h4.817c0.318,0,0.638,0,0.929-0.029L98.327,65.42z"/>
	<path fill="#FFFFFF" d="M118.229,57.789h-7.659l3.83-9.023L118.229,57.789z M119.533,60.835l1.943,4.585h3.656l-8.879-20.311
		h-3.511l-8.966,20.311h3.568l1.943-4.585H119.533z"/>
	<path fill="#FFFFFF" d="M131.253,48.186h4.845c4.004,0,7.108,2.96,7.108,7.108c0,4.121-3.018,7.051-6.963,7.051h-4.99V48.186z
		 M127.828,45.11V65.42h8.24c6.151,0,10.591-4.294,10.591-10.155c0-5.89-4.41-10.155-10.504-10.155H127.828z"/>
	<rect x="150.312" y="45.11" fill="#FFFFFF" width="3.423" height="20.311"/>
	<polygon fill="#FFFFFF" points="176.686,65.42 176.686,45.11 173.319,45.11 173.319,59.705 162.438,45.11 159.072,45.11 
		159.072,65.42 162.495,65.42 162.495,50.856 173.319,65.42 	"/>
	<path fill="#FFFFFF" d="M195.947,55.44v5.658c-1.451,0.871-3.162,1.393-4.674,1.393c-4.148,0-7.427-3.163-7.427-7.224
		c0-4.034,3.25-7.196,7.399-7.196c2.116,0,4.292,0.871,5.859,2.321l1.945-2.524c-2.005-1.74-4.905-2.844-7.805-2.844
		c-6.153,0-10.884,4.439-10.884,10.243c0,5.803,4.674,10.3,10.677,10.3c2.785,0,5.832-1.073,7.893-2.641V55.44H195.947z"/>
	<polygon fill="#FFFFFF" points="72.519,79.283 74.479,73.444 73.787,73.444 72.202,78.506 70.602,73.444 69.934,73.453 
		68.349,78.506 66.747,73.444 66.029,73.444 67.981,79.283 68.666,79.283 70.259,74.362 71.835,79.283 	"/>
	<path fill="#FFFFFF" d="M75.456,76.806c0.1-0.836,0.701-1.378,1.536-1.378c0.859,0,1.427,0.535,1.468,1.378H75.456z M76.991,74.869
		c-1.277,0-2.178,0.909-2.178,2.221c0,1.309,0.892,2.218,2.187,2.218c0.735,0,1.352-0.266,1.769-0.734l-0.359-0.381
		c-0.343,0.356-0.817,0.549-1.359,0.549c-0.85,0-1.476-0.542-1.593-1.399h3.587C79.109,75.844,78.41,74.862,76.991,74.869z"/>
	<path fill="#FFFFFF" d="M84.273,73.419c-1.21,0-2.019,0.593-2.019,1.509c0,2.095,3.287,1.276,3.278,2.812
		c0,0.56-0.525,0.898-1.368,0.898c-0.66,0-1.401-0.301-1.943-0.825l-0.301,0.602c0.551,0.524,1.385,0.892,2.235,0.892
		c1.25,0,2.111-0.626,2.111-1.602c0.008-2.12-3.278-1.337-3.278-2.838c0-0.492,0.491-0.777,1.243-0.777
		c0.467,0,1.084,0.142,1.609,0.492l0.283-0.627C85.641,73.636,84.95,73.419,84.273,73.419z"/>
	<path fill="#FFFFFF" d="M91.355,74.886h-0.65v2.161c0,0.935-0.534,1.592-1.443,1.609c-0.759,0-1.217-0.458-1.217-1.234v-2.537
		h-0.65v2.712c0,1.06,0.617,1.71,1.644,1.71c0.792-0.01,1.376-0.336,1.668-1.018v0.993h0.651v-4.396H91.355z"/>
	<path fill="#FFFFFF" d="M95.21,78.716c-0.925,0-1.576-0.675-1.576-1.637c0-0.952,0.65-1.634,1.576-1.634
		c0.918,0,1.569,0.692,1.569,1.634C96.777,78.031,96.127,78.716,95.21,78.716z M95.327,74.862c-0.768,0-1.368,0.359-1.693,0.976
		v-0.951h-0.651v6.017h0.651v-2.561c0.325,0.608,0.925,0.965,1.71,0.965c1.244,0,2.094-0.909,2.094-2.211
		C97.437,75.778,96.569,74.862,95.327,74.862z"/>
	<path fill="#FFFFFF" d="M100.849,78.716c-0.925,0-1.576-0.675-1.576-1.637c0-0.952,0.65-1.634,1.576-1.634
		c0.918,0,1.569,0.692,1.569,1.634C102.417,78.031,101.766,78.716,100.849,78.716z M100.966,74.862
		c-0.768,0-1.368,0.359-1.693,0.976v-0.951h-0.651v6.017h0.651v-2.561c0.325,0.608,0.925,0.965,1.71,0.965
		c1.244,0,2.094-0.909,2.094-2.211C103.076,75.778,102.208,74.862,100.966,74.862z"/>
	<rect x="104.262" y="73.093" fill="#FFFFFF" width="0.65" height="6.189"/>
	<path fill="#FFFFFF" d="M109.959,74.886h-0.668l-1.393,3.631l-1.461-3.631h-0.684l1.819,4.361l-0.184,0.41
		c-0.175,0.409-0.459,0.619-0.802,0.619c-0.217,0-0.416-0.066-0.617-0.21l-0.274,0.542c0.268,0.217,0.56,0.325,0.925,0.325
		c0.585,0,1.043-0.35,1.319-1.024L109.959,74.886z"/>
	<path fill="#FFFFFF" d="M116.517,77.163h-2.62l1.301-2.96L116.517,77.163z M116.8,77.807l0.65,1.476h0.726l-2.611-5.839h-0.692
		l-2.62,5.839h0.708l0.651-1.476H116.8z"/>
	<rect x="119.044" y="73.093" fill="#FFFFFF" width="0.65" height="6.189"/>
	<rect x="121.363" y="73.093" fill="#FFFFFF" width="0.65" height="6.189"/>
	<path fill="#FFFFFF" d="M128.527,74.061c1.302,0,2.368,1.017,2.368,2.301s-1.066,2.312-2.368,2.312
		c-1.301,0-2.386-1.028-2.386-2.312S127.227,74.061,128.527,74.061z M128.527,73.426c-1.711,0-3.061,1.283-3.061,2.936
		c0,1.645,1.352,2.953,3.061,2.953c1.702,0,3.054-1.309,3.054-2.953C131.581,74.72,130.229,73.426,128.527,73.426z"/>
	<polygon fill="#FFFFFF" points="134.368,79.283 136.094,74.886 135.435,74.886 134.043,78.608 132.642,74.886 131.949,74.886 
		133.691,79.283 	"/>
	<path fill="#FFFFFF" d="M137.062,76.806c0.1-0.836,0.701-1.378,1.536-1.378c0.858,0,1.427,0.535,1.467,1.378H137.062z
		 M138.598,74.869c-1.277,0-2.178,0.909-2.178,2.221c0,1.309,0.892,2.218,2.187,2.218c0.734,0,1.352-0.266,1.768-0.734l-0.358-0.381
		c-0.343,0.356-0.816,0.549-1.359,0.549c-0.85,0-1.476-0.542-1.593-1.399h3.587C140.716,75.844,140.016,74.862,138.598,74.869z"/>
	<path fill="#FFFFFF" d="M142.417,74.886h-0.65v4.396h0.65v-2.337c0.075-0.867,0.651-1.44,1.576-1.427V74.86
		c-0.741,0.009-1.284,0.358-1.576,1.002V74.886z"/>
	<polygon fill="#FFFFFF" points="150.936,74.085 150.936,73.444 146.454,73.444 146.454,74.085 148.357,74.085 148.357,79.283 
		149.023,79.283 149.023,74.085 	"/>
	<path fill="#FFFFFF" d="M154.214,74.862c-0.811,0.009-1.41,0.325-1.711,1.011v-2.779h-0.65v6.189h0.65v-2.158
		c0-0.944,0.551-1.603,1.485-1.609c0.776,0,1.243,0.459,1.243,1.235v2.536h0.65v-2.711
		C155.882,75.512,155.265,74.862,154.214,74.862z"/>
	<path fill="#FFFFFF" d="M157.533,76.806c0.1-0.836,0.701-1.378,1.536-1.378c0.858,0,1.427,0.535,1.467,1.378H157.533z
		 M159.069,74.869c-1.277,0-2.178,0.909-2.178,2.221c0,1.309,0.892,2.218,2.187,2.218c0.734,0,1.352-0.266,1.768-0.734l-0.358-0.381
		c-0.343,0.356-0.816,0.549-1.358,0.549c-0.851,0-1.477-0.542-1.594-1.399h3.587C161.188,75.844,160.485,74.862,159.069,74.869z"/>
	<polygon fill="#FFFFFF" points="170.272,79.283 172.231,73.444 171.54,73.444 169.954,78.506 168.354,73.444 167.686,73.453 
		166.101,78.506 164.498,73.444 163.781,73.444 165.733,79.283 166.417,79.283 168.011,74.362 169.588,79.283 	"/>
	<path fill="#FFFFFF" d="M174.794,75.463c0.919,0,1.576,0.668,1.576,1.626c0,0.966-0.661,1.634-1.576,1.634
		c-0.917,0-1.576-0.668-1.576-1.634C173.216,76.131,173.875,75.463,174.794,75.463z M174.794,74.869
		c-1.302,0-2.227,0.902-2.227,2.211c0,1.318,0.925,2.228,2.227,2.228c1.3,0,2.228-0.909,2.228-2.228
		C177.021,75.771,176.094,74.869,174.794,74.869z"/>
	<path fill="#FFFFFF" d="M178.812,74.886h-0.651v4.396h0.651v-2.337c0.077-0.867,0.65-1.44,1.577-1.427V74.86
		c-0.741,0.009-1.283,0.358-1.577,1.002V74.886z"/>
	<rect x="181.308" y="73.093" fill="#FFFFFF" width="0.65" height="6.189"/>
	<path fill="#FFFFFF" d="M185.39,78.734c-0.934,0-1.595-0.686-1.595-1.638c0-0.958,0.661-1.65,1.595-1.65
		c0.924,0,1.585,0.692,1.585,1.65C186.975,78.048,186.313,78.734,185.39,78.734z M187.625,73.093h-0.65v2.744
		c-0.325-0.626-0.935-0.984-1.718-0.984c-1.245,0-2.113,0.911-2.113,2.227c0,1.312,0.868,2.235,2.12,2.235
		c0.784,0,1.386-0.357,1.711-0.977v0.944h0.65V73.093L187.625,73.093z"/>
	<g>
		<g>
			<defs>
				
					<rect id="SVGID_1_" x="13.773" y="8.714" transform="matrix(-0.5449 0.8385 -0.8385 -0.5449 97.1019 27.2902)" width="54.743" height="62.564"/>
			</defs>
			<clipPath id="SVGID_2_">
				<use xlink:href="#SVGID_1_"  overflow="visible"/>
			</clipPath>
			<g clip-path="url(#SVGID_2_)">
				<g>
					<defs>
						
							<rect id="SVGID_3_" x="13.773" y="8.714" transform="matrix(-0.5449 0.8385 -0.8385 -0.5449 97.1019 27.2902)" width="54.743" height="62.564"/>
					</defs>
					<clipPath id="SVGID_4_">
						<use xlink:href="#SVGID_3_"  overflow="visible"/>
					</clipPath>
					<path clip-path="url(#SVGID_4_)" fill="#23B5B5" d="M54.664,75.596L54.664,75.596l2.428-56.006l-0.012-0.009
						c0.06-1.078-0.425-2.151-1.389-2.778c-0.864-0.562-1.903-0.626-2.8-0.281l-0.007-0.005l-0.034,0.018
						c-0.167,0.068-0.329,0.152-0.484,0.25L3.101,42.114v0.001c-0.547,0.236-1.035,0.632-1.385,1.173
						c-0.941,1.448-0.539,3.381,0.899,4.314L49.85,78.296c1.438,0.935,3.367,0.518,4.308-0.931
						C54.512,76.817,54.674,76.201,54.664,75.596z"/>
				</g>
			</g>
		</g>
	</g>
</g>
</svg>
